<svg width="18" height="18" viewBox="0 0 18 18" fill="none" xmlns="http://www.w3.org/2000/svg">
<path d="M5.25 13.5V12M9 13.5V11.25M12.75 13.5V9.75M1.875 9C1.875 5.6415 1.875 3.9615 2.91825 2.91825C3.9615 1.875 5.64075 1.875 9 1.875C12.3585 1.875 14.0385 1.875 15.0817 2.91825C16.125 3.9615 16.125 5.64075 16.125 9C16.125 12.3585 16.125 14.0385 15.0817 15.0817C14.0385 16.125 12.3593 16.125 9 16.125C5.6415 16.125 3.9615 16.125 2.91825 15.0817C1.875 14.0385 1.875 12.3593 1.875 9Z" stroke="#CBCBCB" stroke-width="1.5" stroke-linecap="round" stroke-linejoin="round"/>
<path d="M4.49402 8.6145C6.11027 8.6685 9.77552 8.42475 11.8605 5.11575M10.494 4.716L11.901 4.4895C12.072 4.46775 12.324 4.6035 12.3863 4.76475L12.7575 5.99325" stroke="#CBCBCB" stroke-width="1.5" stroke-linecap="round" stroke-linejoin="round"/>
</svg>
