<svg width="18" height="18" viewBox="0 0 18 18" fill="none" xmlns="http://www.w3.org/2000/svg">
<path fill-rule="evenodd" clip-rule="evenodd" d="M9.00001 2.0625C8.55245 2.0625 8.12323 2.24029 7.80677 2.55676C7.4903 2.87322 7.31251 3.30245 7.31251 3.75V3.945C7.73026 3.9375 8.18851 3.9375 8.69251 3.9375H9.30826C9.81076 3.9375 10.2698 3.9375 10.6883 3.945V3.75C10.6883 3.52833 10.6446 3.30883 10.5597 3.10405C10.4749 2.89926 10.3505 2.7132 10.1937 2.55649C10.037 2.39978 9.85084 2.2755 9.64602 2.19074C9.44119 2.10598 9.22168 2.0624 9.00001 2.0625ZM11.8125 3.996V3.75C11.8125 3.00408 11.5162 2.28871 10.9887 1.76126C10.4613 1.23382 9.74593 0.9375 9.00001 0.9375C8.25409 0.9375 7.53872 1.23382 7.01127 1.76126C6.48382 2.28871 6.18751 3.00408 6.18751 3.75V3.996C6.08051 4.005 5.97701 4.01575 5.87701 4.02825C5.11951 4.122 4.49551 4.3185 3.96451 4.75875C3.43351 5.199 3.12601 5.7765 2.89501 6.504C2.67001 7.209 2.50051 8.11425 2.28751 9.2535L2.27176 9.336C1.97026 10.9432 1.73326 12.21 1.68901 13.2083C1.64401 14.232 1.79701 15.0795 2.37451 15.7748C2.95201 16.4708 3.75676 16.7768 4.77076 16.9215C5.76076 17.0625 7.04851 17.0625 8.68426 17.0625H9.31801C10.953 17.0625 12.2415 17.0625 13.2308 16.9215C14.2448 16.7768 15.0503 16.4708 15.6278 15.7748C16.2053 15.0788 16.3568 14.232 16.3125 13.2083C16.269 12.21 16.0313 10.9432 15.7298 9.336L15.7148 9.2535C15.501 8.11425 15.3308 7.20825 15.1073 6.504C14.8748 5.7765 14.5673 5.199 14.0363 4.75875C13.506 4.3185 12.8813 4.12125 12.1238 4.02825C12.0205 4.01554 11.917 4.00479 11.8133 3.996M6.01501 5.145C5.37376 5.22375 4.98601 5.373 4.68301 5.625C4.38076 5.8755 4.16251 6.22875 3.96601 6.84525C3.76576 7.47525 3.60751 8.31375 3.38551 9.498C3.07351 11.1607 2.85226 12.348 2.81251 13.2577C2.77351 14.1503 2.91751 14.6678 3.23926 15.057C3.56176 15.4447 4.04401 15.681 4.92901 15.807C5.82901 15.936 7.03801 15.9375 8.73001 15.9375H9.27001C10.9628 15.9375 12.1703 15.936 13.071 15.8077C13.956 15.681 14.4383 15.4447 14.7608 15.057C15.0833 14.6685 15.2265 14.151 15.1883 13.257C15.1478 12.3488 14.9265 11.1607 14.6145 9.498C14.3925 8.313 14.235 7.476 14.034 6.84525C13.8375 6.22875 13.62 5.8755 13.317 5.62425C13.014 5.373 12.627 5.22375 11.985 5.14425C11.328 5.06325 10.4753 5.0625 9.27001 5.0625H8.73001C7.52476 5.0625 6.67201 5.06325 6.01501 5.145ZM6.84226 7.695C6.91515 7.7071 6.98494 7.73344 7.04765 7.77252C7.11036 7.8116 7.16475 7.86265 7.20772 7.92276C7.25069 7.98287 7.2814 8.05085 7.2981 8.12283C7.31479 8.1948 7.31714 8.26936 7.30501 8.34225L6.55501 12.8422C6.54289 12.9151 6.51654 12.9849 6.47746 13.0476C6.43837 13.1103 6.38732 13.1647 6.32722 13.2077C6.26712 13.2506 6.19914 13.2814 6.12717 13.2981C6.0552 13.3148 5.98064 13.3171 5.90776 13.305C5.83487 13.2929 5.76509 13.2665 5.70239 13.2275C5.63969 13.1884 5.5853 13.1373 5.54233 13.0772C5.49936 13.0171 5.46865 12.9491 5.45195 12.8772C5.43525 12.8052 5.43289 12.7306 5.44501 12.6578L6.19501 8.15775C6.20711 8.08486 6.23345 8.01507 6.27253 7.95236C6.31161 7.88965 6.36266 7.83526 6.42277 7.79229C6.48287 7.74931 6.55086 7.7186 6.62283 7.70191C6.69481 7.68522 6.76937 7.68287 6.84226 7.695ZM11.1578 7.695C11.2306 7.68287 11.3052 7.68522 11.3772 7.70191C11.4492 7.7186 11.5171 7.74931 11.5772 7.79229C11.6374 7.83526 11.6884 7.88965 11.7275 7.95236C11.7666 8.01507 11.7929 8.08486 11.805 8.15775L12.555 12.6578C12.5795 12.8049 12.5445 12.9558 12.4577 13.0772C12.3709 13.1986 12.2395 13.2805 12.0923 13.305C11.9451 13.3295 11.7942 13.2945 11.6728 13.2077C11.5514 13.1209 11.4695 12.9894 11.445 12.8422L10.695 8.34225C10.6829 8.26936 10.6852 8.1948 10.7019 8.12283C10.7186 8.05085 10.7493 7.98287 10.7923 7.92276C10.8353 7.86265 10.8897 7.8116 10.9524 7.77252C11.0151 7.73344 11.0849 7.7071 11.1578 7.695Z" fill="#CBCBCB"/>
</svg>
